#N canvas 718 296 676 437 10;
#X obj 100 140 *~;
#X floatatom 118 120 5 0 0 0 - - -, f 5;
#X obj 18 16 inlet~;
#X obj 86 315 *~;
#X floatatom 104 296 5 0 0 0 - - -, f 5;
#X text 130 140 feedback amount;
#X text 198 252 delay amount;
#X text 124 316 delay level;
#X obj 18 357 outlet~;
#X floatatom 123 187 5 0 0 0 - - -, f 5;
#X obj 123 206 pack \$1 20;
#X obj 123 228 line~;
#X text 276 80 delay fdbck level;
#X obj 271 128 hsl 128 15 0 3000 0 0 empty empty delay_time 4 8 0 10
-204800 -1 -1 0 1;
#X obj 271 148 hsl 128 15 0 1 0 0 empty empty feedback 4 8 0 10 -204800
-1 -1 0 1;
#X obj 271 168 hsl 128 15 0 1 0 0 empty empty level 4 8 0 10 -204800
-1 -1 0 1;
#X floatatom 405 148 7 0 0 0 - - -, f 7;
#X floatatom 405 128 7 0 0 0 - - -, f 7;
#X floatatom 405 168 7 0 0 0 - - -, f 7;
#X obj 42 45 lop~;
#X floatatom 405 108 7 0 0 0 lowpass_freq - -, f 7;
#X obj 323 21 loadbang;
#X msg 323 43 12000;
#X obj 108 253 vd~ \$0-delay;
#X obj 87 16 inlet;
#X obj 147 16 inlet;
#X obj 324 226 bng 15 250 50 0 empty empty empty 17 7 0 10 -262144
-1 -1;
#X obj 324 246 tgl 15 0 empty empty empty 17 7 0 10 -262144 -1 -1 1
1;
#X obj 324 266 sel 0 1;
#X obj 324 288 timer;
#X floatatom 324 332 5 0 0 0 - - -, f 5;
#X obj 396 225 loadbang;
#X msg 396 246 1;
#X obj 391 332 bng 15 250 50 0 empty empty empty 17 7 0 10 -262144
-1 -1;
#X obj 324 203 inlet;
#X obj 324 310 moses 3000;
#X obj 42 83 delwrite~ \$0-delay 3000;
#X text 70 62 maximum delay time is 3000;
#X connect 0 0 36 0;
#X connect 1 0 0 1;
#X connect 2 0 8 0;
#X connect 2 0 19 0;
#X connect 3 0 8 0;
#X connect 4 0 3 1;
#X connect 9 0 10 0;
#X connect 10 0 11 0;
#X connect 11 0 23 0;
#X connect 13 0 9 0;
#X connect 13 0 17 0;
#X connect 14 0 1 0;
#X connect 14 0 16 0;
#X connect 15 0 4 0;
#X connect 15 0 18 0;
#X connect 19 0 36 0;
#X connect 20 0 19 1;
#X connect 21 0 22 0;
#X connect 22 0 20 0;
#X connect 23 0 3 0;
#X connect 23 0 0 0;
#X connect 24 0 14 0;
#X connect 25 0 15 0;
#X connect 26 0 27 0;
#X connect 27 0 28 0;
#X connect 28 0 29 0;
#X connect 28 1 29 1;
#X connect 29 0 35 0;
#X connect 30 0 13 0;
#X connect 31 0 32 0;
#X connect 32 0 27 0;
#X connect 34 0 26 0;
#X connect 35 0 30 0;
#X connect 35 1 33 0;
#X coords 0 -1 1 1 204 90 2 260 100;
