#N canvas 578 60 539 780 10;
#X obj 23 162 soundfiler;
#X obj 23 206 expr 44100 / $f1;
#X obj 23 459 phasor~;
#X obj 22 600 *~;
#X floatatom 23 185 10 0 0 0 - - -, f 10;
#X obj 23 431 *;
#X floatatom 23 411 5 0 0 0 - - -, f 5;
#X obj 40 364 t b f;
#X obj 311 408 hsl 200 15 -1.5 1.5 0 0 empty empty playback_speed 4
8 0 10 -204786 -1 -1 16583 1;
#X floatatom 462 428 7 0 0 0 - - -, f 7;
#X obj 23 263 expr 1 / $f1;
#X obj 23 289 *;
#X obj 311 229 hsl 200 15 0 1 0 0 empty empty left_limit 4 8 0 10 -204786
-1 -1 0 1;
#X obj 311 249 hsl 200 15 0 1 0 0 empty empty right_limit 4 8 0 10
-204786 -1 -1 19900 1;
#X obj 261 220 t b f;
#X floatatom 261 246 5 0 0 0 - - -, f 5;
#X obj 261 269 -;
#X obj 22 518 *~;
#X obj 21 577 +~;
#X obj 23 711 *~;
#X obj 42 664 *~ 22049;
#X text 96 184 size of soundfile;
#X text 418 491 playback speed;
#X text 320 184 left and right sample limits;
#X obj 42 687 tabread~ crown;
#X obj 383 209 bng 15 250 50 0 empty empty empty 17 7 0 10 -262144
-1 -1;
#X obj 129 36 inlet;
#X obj 219 36 inlet;
#X obj 328 35 inlet;
#X obj 23 88 openpanel;
#X obj 24 737 outlet~;
#X obj 101 481 line~;
#X obj 192 481 line~;
#X obj 101 459 pack \$1 100;
#X obj 192 459 pack \$1 100;
#N canvas 366 229 516 331 (subpatch) 0;
#X array \$0-sample 971743 float 2;
#X coords 0 1 971743 -1 205 100 2 0 0;
#X restore 308 283 graph;
#X obj 311 388 hsl 200 15 0 1 0 0 empty empty playback_needle 4 8 0
10 -204786 -1 -1 0 1;
#X floatatom 252 370 5 0 0 0 - - -, f 5;
#X text 348 473 playback needle position;
#X obj 313 517 tgl 15 0 empty empty empty 17 7 0 10 -262144 -1 -1 1
1;
#X obj 313 537 metro 50;
#X obj 313 559 snapshot~;
#X floatatom 313 581 10 0 0 0 - - -, f 10;
#X obj 313 495 loadbang;
#X obj 22 622 tabread4~ \$0-sample;
#X obj 23 62 t b b;
#X obj 23 113 pack s s;
#X msg 23 137 read -resize \$1 \$2;
#X obj 96 88 symbol \$0-sample;
#X obj 308 209 bng 15 250 50 0 empty empty load_file 17 7 0 10 -204786
-1 -1;
#X obj 287 115 del 50;
#X obj 391 39 loadbang;
#X msg 391 61 1;
#X msg 425 61 0;
#X text 114 15 left limit \, right limit \, playback speed;
#X connect 0 0 4 0;
#X connect 1 0 11 1;
#X connect 2 0 17 0;
#X connect 2 0 20 0;
#X connect 3 0 44 0;
#X connect 4 0 1 0;
#X connect 4 0 3 1;
#X connect 5 0 2 0;
#X connect 6 0 5 0;
#X connect 7 0 6 0;
#X connect 7 1 5 1;
#X connect 8 0 7 0;
#X connect 8 0 9 0;
#X connect 10 0 11 0;
#X connect 11 0 6 0;
#X connect 12 0 14 0;
#X connect 13 0 15 0;
#X connect 14 0 15 0;
#X connect 14 1 16 1;
#X connect 14 1 34 0;
#X connect 15 0 16 0;
#X connect 16 0 10 0;
#X connect 16 0 33 0;
#X connect 17 0 18 0;
#X connect 18 0 3 0;
#X connect 18 0 41 0;
#X connect 19 0 30 0;
#X connect 20 0 24 0;
#X connect 24 0 19 1;
#X connect 25 0 12 0;
#X connect 26 0 12 0;
#X connect 27 0 13 0;
#X connect 28 0 8 0;
#X connect 29 0 46 0;
#X connect 31 0 17 1;
#X connect 32 0 18 1;
#X connect 33 0 31 0;
#X connect 34 0 32 0;
#X connect 36 0 37 0;
#X connect 39 0 40 0;
#X connect 40 0 41 0;
#X connect 41 0 42 0;
#X connect 42 0 36 0;
#X connect 43 0 39 0;
#X connect 44 0 19 0;
#X connect 45 0 29 0;
#X connect 45 1 48 0;
#X connect 46 0 47 0;
#X connect 47 0 0 0;
#X connect 48 0 46 1;
#X connect 49 0 45 0;
#X connect 49 0 12 0;
#X connect 49 0 50 0;
#X connect 50 0 25 0;
#X connect 51 0 52 0;
#X connect 51 0 53 0;
#X connect 52 0 13 0;
#X connect 52 0 8 0;
#X connect 53 0 12 0;
#X coords 0 -1 1 1 220 250 2 300 200;
