#N canvas 964 341 450 294 10;
#X floatatom 79 88 5 0 0 0 - - -, f 5;
#X obj 79 106 \$1 20;
#X obj 79 127 line~;
#X obj 22 234 outlet~;
#X obj 78 156 *~;
#X text 106 156 exponential curve is better for amplitude;
#X obj 41 42 hsl 128 15 0 1 0 0 empty empty master_volume 4 8 0 10
-261234 -1 -1 0 1;
#X floatatom 175 42 7 0 0 0 - - -, f 7;
#X obj 22 208 lop~;
#X obj 306 83 loadbang;
#X floatatom 175 23 7 0 0 0 lowpass_freq - -, f 7;
#X obj 22 184 *~;
#X obj 23 88 inlet~;
#X msg 306 105 20000;
#X obj 38 23 tgl 15 0 empty empty empty 17 7 0 10 -261234 -1 -1 0 1
;
#X msg 177 210 dsp \$1;
#X obj 177 233 s pd;
#X connect 0 0 1 0;
#X connect 1 0 2 0;
#X connect 2 0 4 0;
#X connect 2 0 4 1;
#X connect 4 0 11 1;
#X connect 6 0 7 0;
#X connect 6 0 0 0;
#X connect 8 0 3 0;
#X connect 9 0 13 0;
#X connect 10 0 8 1;
#X connect 11 0 8 0;
#X connect 12 0 11 0;
#X connect 13 0 10 0;
#X connect 14 0 15 0;
#X connect 15 0 16 0;
#X coords 0 -1 1 1 204 50 2 30 15;
